<svg width="380" height="429" viewBox="0 0 380 429" fill="none" xmlns="http://www.w3.org/2000/svg">
<circle cx="190" cy="239" r="190" fill="#A32FA2"/>
<path d="M184.926 90.589C183.979 91.0526 179.249 95.5732 174.413 100.615C169.63 105.6 165.319 110.12 164.846 110.584C164.426 111.047 162.008 113.539 159.59 116.09C157.172 118.64 151.127 124.899 146.238 129.999C141.35 135.099 134.727 141.996 131.521 145.357C128.314 148.719 124.319 152.891 122.637 154.63C120.955 156.369 118.012 159.498 116.067 161.527C114.174 163.555 109.549 168.366 105.764 172.249C102.032 176.074 95.8821 182.565 92.0975 186.564C88.3654 190.563 84.4231 194.736 83.3718 195.837C63.0821 216.817 55.1449 225.452 54.5667 227.307C51.8859 234.899 59.2449 242.201 65.5526 238.26C66.5513 237.623 70.0731 234.261 73.3846 230.784C76.6436 227.307 79.85 224.119 80.4282 223.656C82.9513 221.685 82.8987 219.657 82.8987 298.071C82.8987 351.158 83.0564 371.733 83.4769 373.182C84.318 375.906 86.4205 378.224 88.6808 378.977C90.0475 379.441 91.7821 379.325 95.5141 378.629C108.34 376.311 119.378 373.587 133.097 369.357C143.768 366.053 145.818 365.416 148.446 364.72C152.021 363.735 154.071 362.112 155.385 359.04C156.804 355.795 156.751 354.346 155.174 351.39C154.281 349.652 153.177 348.55 151.39 347.623C148.867 346.348 148.867 346.348 144.924 347.333C142.769 347.913 139.563 348.84 137.828 349.42C136.094 349.941 132.782 350.985 130.469 351.68C128.156 352.375 125.003 353.303 123.478 353.766C122.006 354.23 119.01 354.983 116.908 355.447C114.858 355.911 112.177 356.49 111.021 356.838C109.864 357.186 107.078 357.881 104.765 358.461C100.771 359.388 100.613 359.388 99.9295 358.345C99.2987 357.418 99.1936 344.783 99.2462 281.611C99.2987 239.999 99.4564 205.399 99.6141 204.704C99.8244 204.009 103.556 199.72 107.919 195.141C115.962 186.622 134.096 167.554 135.147 166.511C140.719 160.831 145.818 155.499 150.706 150.341C154.018 146.806 159.012 141.59 161.745 138.692C164.478 135.852 169.472 130.636 172.783 127.159C176.147 123.624 180.826 118.698 183.191 116.205L187.501 111.743L188.868 112.728C189.656 113.25 191.128 114.641 192.232 115.742C202.272 126.232 211.733 136.142 213.258 137.881C214.256 139.04 218.041 142.981 221.668 146.632C225.295 150.283 229.185 154.282 230.341 155.499C231.497 156.775 241.064 166.801 251.577 177.812C262.142 188.824 272.813 200.01 275.388 202.733L280.014 207.66V282.539C280.014 349.825 279.909 357.476 279.173 358.287C278.174 359.388 278.437 359.388 274.232 358.403C272.34 357.939 268.45 357.012 265.559 356.316C262.668 355.679 258.988 354.694 257.412 354.172C255.835 353.65 253.206 352.897 251.629 352.491C244.533 350.695 241.432 349.709 225.347 344.146C214.835 340.552 211.155 338.872 211.155 337.771C211.155 337.423 212.89 335.974 214.992 334.467C232.496 322.18 241.905 313.313 248.581 302.707C251.209 298.534 255.309 289.899 255.309 288.566C255.309 288.044 255.572 287.291 255.835 287.001C256.676 286.074 257.937 277.844 257.937 273.498C257.937 263.587 256.097 254.836 252.733 248.577C242.01 228.64 215.045 226.727 195.018 244.404C192.495 246.664 190.182 248.519 189.867 248.519C189.604 248.577 188.395 247.765 187.238 246.78C180.51 241.042 178.513 239.593 174.518 237.507C172.1 236.232 169.84 235.189 169.419 235.189C169.051 235.189 167.632 234.667 166.265 234.03C162.901 232.349 153.124 231.885 147.132 233.044C132.887 235.942 123.741 247.881 121.744 266.253C121.271 270.832 121.323 272.512 122.269 278.829C122.847 282.828 123.688 286.885 124.109 287.871C124.582 288.798 124.95 289.899 124.95 290.247C124.95 290.595 125.791 292.797 126.842 295.173C128.577 299.346 134.464 308.039 138.932 313.197C142.927 317.834 155.227 328.382 160.431 331.627C161.324 332.207 162.849 333.192 163.953 333.888C170.733 338.408 183.664 345.884 184.61 345.884C184.715 345.884 186.555 346.754 188.658 347.855C190.76 348.956 194.019 350.521 195.912 351.39C197.804 352.26 200.064 353.303 200.905 353.766C202.955 354.752 205.268 355.679 216.149 359.562C221.09 361.359 225.926 363.155 226.924 363.561C227.923 363.967 230.762 364.894 233.232 365.589C235.703 366.285 238.909 367.27 240.328 367.734C241.8 368.255 244.271 368.951 245.847 369.357C247.424 369.762 251.051 370.805 253.837 371.617C256.623 372.486 260.776 373.529 263.036 373.993C265.296 374.457 269.974 375.5 273.444 376.369C284.482 379.035 287.899 379.499 290.317 378.861C293.155 378.05 295.258 375.616 295.836 372.428C296.099 371.037 296.256 337.771 296.256 298.419C296.256 259.125 296.414 226.785 296.519 226.611C297.15 225.974 299.147 227.597 304.772 233.45C313.077 242.085 314.233 242.897 318.018 242.607C320.699 242.375 321.329 242.085 322.959 240.289C324.378 238.724 324.851 237.623 325.062 235.652C325.429 232.001 323.8 229.103 317.703 222.728C315.074 219.888 308.714 213.281 303.668 208.007C298.622 202.733 291.894 195.663 288.687 192.301C285.533 188.94 280.645 183.84 277.912 181C267.609 170.278 255.624 157.76 253.995 156.021C253.049 155.036 250.683 152.602 248.686 150.573C246.688 148.545 242.01 143.619 238.226 139.62C234.494 135.563 229.973 130.868 228.238 129.13C226.504 127.449 221.51 122.233 217.147 117.596C212.785 112.96 208.212 108.092 206.897 106.875C205.636 105.6 202.114 102.006 199.171 98.8766C196.174 95.747 192.968 92.5594 192.074 91.806C189.867 89.9514 187.186 89.4878 184.926 90.589ZM231.655 251.532C233.337 251.996 234.862 253.155 236.964 255.415C240.906 259.704 241.905 263.066 241.905 271.991C241.905 279.003 241.274 281.611 237.858 288.218C234.073 295.521 231.55 298.708 223.981 305.837C215.938 313.371 208.422 318.761 197.068 325.136C189.499 329.367 190.865 329.541 179.406 322.876C165.477 314.704 159.432 310.126 151.547 301.896C140.877 290.652 136.356 280.22 137.303 269.093C137.723 264.572 139.721 257.618 141.087 255.879C143.61 252.749 149.813 250.257 154.912 250.257C158.696 250.257 163.637 251.822 168.158 254.488C172.888 257.212 176.358 260.4 180.51 265.789C184.137 270.542 186.503 272.223 189.499 272.28C192.705 272.28 194.019 271.353 199.276 265.094C206.792 256.227 213.941 251.706 222.982 250.083C224.296 249.852 228.554 250.547 231.655 251.532Z" fill="white"/>
<path d="M194.65 190.911C193.967 191.664 193.809 193.403 193.809 201.169C193.809 214.093 192.968 213.166 204.847 213.166C213.626 213.166 214.309 213.108 214.835 212.064C215.15 211.427 215.36 206.906 215.36 201.574C215.36 196.242 215.15 191.722 214.835 191.084C214.309 190.041 213.626 189.983 204.847 189.983C197.015 189.983 195.333 190.157 194.65 190.911Z" fill="white"/>
<path d="M163.322 154.224L162.008 154.978L161.85 165.352C161.745 174.625 161.798 175.842 162.639 176.479C163.269 177.001 166.161 177.233 172.573 177.233C180.037 177.233 181.719 177.059 182.245 176.363C182.718 175.726 182.981 172.596 183.034 165.641C183.191 152.659 183.875 153.471 172.889 153.471C167.317 153.471 164.216 153.703 163.322 154.224Z" fill="white"/>
<path d="M195.123 154.92C193.809 156.311 193.809 156.484 193.809 165.815C193.809 174.277 193.914 175.436 194.755 176.247C195.596 177.117 197.121 177.233 205.005 177.233C213.626 177.233 214.309 177.175 214.835 176.132C215.15 175.494 215.36 170.915 215.36 165.41C215.36 152.717 216.044 153.471 204.848 153.471C196.595 153.471 196.385 153.529 195.123 154.92Z" fill="white"/>
<path d="M162.376 190.679C161.587 191.548 161.482 210.384 162.271 212.064C162.796 213.108 163.48 213.165 172.468 213.165H182.14L182.718 211.543C183.349 209.804 183.244 191.838 182.56 190.679C182.035 189.693 163.269 189.693 162.376 190.679Z" fill="white"/>
</svg>

